<svg xmlns="http://www.w3.org/2000/svg" xmlns:xlink="http://www.w3.org/1999/xlink" version="1.1" x="0px" y="0px" viewBox="0 0 100 125" enable-background="new 0 0 100 100" xml:space="preserve"><path fill="#000000" d="M93.282,46.082l-0.04-0.148c-0.111-0.416-0.543-0.666-0.959-0.554l-2.831,0.757  c-0.621-1.216-1.998-1.924-3.399-1.638l-2.787,0.568c-1.537,0.313-2.579,1.714-2.489,3.236l-1.263,0.338  c-0.516-1.307-1.877-2.145-3.329-1.943l-2.817,0.392c-1.519,0.211-2.631,1.49-2.685,2.973l-1.17,0.166  c-0.424-1.279-1.653-2.185-3.066-2.136l-2.843,0.098c-1.56,0.054-2.816,1.251-2.989,2.757l-1.403,0.104  c-0.296-1.403-1.538-2.464-3.029-2.474l-2.845-0.019c-1.49-0.01-2.746,1.033-3.061,2.43h-1.151c-0.369-1.3-1.561-2.259-2.978-2.268  l-2.845-0.019c-1.562-0.01-2.867,1.136-3.101,2.635l-1.155-0.126l-0.007-0.162c-0.079-1.717-1.541-3.049-3.258-2.97l-2.842,0.131  c-1.28,0.059-2.346,0.887-2.773,2.016l-0.885-0.096c-0.135-1.363-1.165-2.527-2.579-2.768L23.9,46.881  c-1.601-0.272-3.128,0.733-3.536,2.274l-1.079-0.117c-0.103-1.475-1.251-2.715-2.772-2.881l-2.828-0.308  c-1.499-0.163-2.87,0.771-3.309,2.156L7.576,47.7c-0.428-0.047-0.817,0.266-0.863,0.694l-0.017,0.153  c-0.047,0.428,0.266,0.817,0.694,0.863l2.78,0.303c0.074,1.503,1.233,2.776,2.776,2.944l2.828,0.308  c1.521,0.166,2.909-0.798,3.327-2.217l1.073,0.117c0.135,1.363,1.165,2.527,2.579,2.768l2.804,0.477  c1.601,0.272,3.128-0.733,3.536-2.274l0.901,0.098l0.007,0.143c0.079,1.717,1.541,3.049,3.258,2.97l2.842-0.131  c1.273-0.059,2.335-0.878,2.766-1.998l1.362,0.148c0.293,1.406,1.537,2.47,3.03,2.48l2.845,0.019  c1.639,0.011,2.994-1.252,3.127-2.859h0.996c0.205,1.512,1.498,2.687,3.068,2.697l2.845,0.019c1.568,0.011,2.876-1.144,3.103-2.651  l1.466-0.108c0.345,1.401,1.636,2.421,3.134,2.369l2.843-0.098c1.641-0.057,2.945-1.379,3.007-2.995l1.235-0.175  c0.464,1.4,1.876,2.317,3.388,2.106l2.818-0.392c1.576-0.219,2.713-1.587,2.687-3.139l1.344-0.359  c0.579,1.312,2.013,2.094,3.474,1.796l2.787-0.568c1.595-0.325,2.657-1.821,2.474-3.409l2.833-0.757  C93.144,46.93,93.394,46.498,93.282,46.082z M17.205,50.541l0.385,0.042c-0.296,0.607-0.95,0.996-1.658,0.919l-2.828-0.308  c-0.73-0.08-1.3-0.632-1.437-1.319l0.712,0.077c0.428,0.047,0.817-0.266,0.863-0.694l0.017-0.153  c0.047-0.428-0.266-0.817-0.694-0.863l-0.666-0.073c0.309-0.573,0.944-0.934,1.628-0.86l2.828,0.308  c0.707,0.077,1.262,0.598,1.421,1.254l-0.385-0.042c-0.428-0.047-0.817,0.266-0.863,0.694l-0.017,0.153  C16.465,50.106,16.777,50.494,17.205,50.541z M27.187,51.628l0.409,0.045c-0.29,0.688-1.027,1.117-1.793,0.987l-2.804-0.477  c-0.635-0.108-1.123-0.572-1.298-1.151l0.495,0.054c0.428,0.047,0.817-0.266,0.863-0.694l0.017-0.153  c0.047-0.428-0.266-0.817-0.694-0.863l-0.52-0.057c0.29-0.688,1.027-1.117,1.793-0.987l2.804,0.477  c0.635,0.108,1.123,0.572,1.299,1.152l-0.384-0.042c-0.428-0.047-0.817,0.266-0.863,0.694l-0.017,0.153  C26.446,51.192,26.758,51.581,27.187,51.628z M37.005,52.715l0.294,0.032c-0.284,0.402-0.742,0.675-1.268,0.699l-2.842,0.131  c-0.876,0.04-1.627-0.62-1.713-1.483l0.7,0.076c0.428,0.047,0.817-0.266,0.863-0.694l0.017-0.153  c0.047-0.428-0.266-0.817-0.694-0.863l-0.633-0.069c0.283-0.411,0.746-0.692,1.28-0.717l2.842-0.131  c0.882-0.041,1.638,0.63,1.714,1.502l-0.374-0.041c-0.428-0.047-0.817,0.266-0.863,0.694l-0.017,0.153  C36.264,52.28,36.576,52.669,37.005,52.715z M46.112,54.095l-2.845-0.019c-0.606-0.004-1.134-0.34-1.417-0.833l0.144,0.016  c0.428,0.047,0.817-0.266,0.863-0.694l0.017-0.153c0.047-0.428-0.266-0.817-0.694-0.863l-0.512-0.056  c0.152-0.757,0.826-1.329,1.625-1.324l2.845,0.019c0.591,0.004,1.109,0.324,1.396,0.798h-0.452c-0.431,0-0.783,0.352-0.783,0.783  v0.154c0,0.431,0.352,0.783,0.783,0.783h0.665C47.622,53.494,46.933,54.1,46.112,54.095z M56.815,52.165  c0.032,0.43,0.409,0.755,0.839,0.723l0.042-0.003c-0.238,0.625-0.844,1.071-1.55,1.066l-2.845-0.019  c-0.757-0.005-1.393-0.527-1.579-1.227h0.378c0.431,0,0.783-0.352,0.783-0.783v-0.154c0-0.431-0.352-0.783-0.783-0.783h-0.278  c0.263-0.568,0.841-0.964,1.505-0.96l2.845,0.019c0.715,0.005,1.323,0.472,1.545,1.114l-0.19,0.014  c-0.43,0.032-0.755,0.409-0.723,0.839L56.815,52.165z M66.632,53.464l-2.843,0.098c-0.7,0.024-1.316-0.399-1.573-1.011l0.444-0.033  c0.43-0.032,0.755-0.409,0.723-0.839l-0.011-0.153c-0.032-0.43-0.409-0.755-0.839-0.723l-0.398,0.029  c0.198-0.657,0.798-1.15,1.519-1.175l2.843-0.098c0.649-0.022,1.225,0.34,1.511,0.879l-0.329,0.047  c-0.427,0.06-0.726,0.459-0.666,0.885l0.022,0.152c0.06,0.427,0.459,0.726,0.885,0.666l0.266-0.038  C68.035,52.877,67.403,53.437,66.632,53.464z M76.926,52.022l-2.818,0.392c-0.702,0.098-1.365-0.269-1.681-0.863l0.461-0.065  c0.427-0.06,0.726-0.459,0.666-0.885l-0.021-0.152c-0.06-0.427-0.459-0.726-0.885-0.666l-0.463,0.065  c0.137-0.664,0.677-1.205,1.385-1.304l2.818-0.392c0.706-0.098,1.372,0.273,1.686,0.872l-0.311,0.083  c-0.416,0.111-0.666,0.543-0.554,0.959l0.04,0.148c0.111,0.416,0.543,0.666,0.959,0.554l0.099-0.026  C78.161,51.396,77.625,51.925,76.926,52.022z M87.128,49.767l-2.787,0.568c-0.69,0.141-1.37-0.179-1.724-0.744l0.44-0.118  c0.416-0.111,0.666-0.543,0.554-0.959l-0.04-0.148c-0.111-0.416-0.543-0.666-0.959-0.554l-0.353,0.094  c0.091-0.676,0.598-1.255,1.302-1.399l2.787-0.568c0.626-0.128,1.245,0.124,1.619,0.594l-0.532,0.142  c-0.416,0.111-0.666,0.543-0.554,0.959l0.04,0.148c0.111,0.416,0.543,0.666,0.959,0.554l0.565-0.151  C88.428,48.938,87.894,49.611,87.128,49.767z"/><text x="0" y="115" fill="#000000" font-size="5px" font-weight="bold" font-family="'Helvetica Neue', Helvetica, Arial-Unicode, Arial, Sans-serif">Created by Pedro Santos</text><text x="0" y="120" fill="#000000" font-size="5px" font-weight="bold" font-family="'Helvetica Neue', Helvetica, Arial-Unicode, Arial, Sans-serif">from the Noun Project</text></svg>