<svg xmlns="http://www.w3.org/2000/svg" xmlns:xlink="http://www.w3.org/1999/xlink" version="1.1" x="0px" y="0px" viewBox="0 0 1080 1350" enable-background="new 0 0 1080 1080" xml:space="preserve"><path d="M557,225.537c0,9.092-7.371,16.463-16.463,16.463h-0.073c-9.092,0-16.463-7.371-16.463-16.463V114.463  C524,105.371,531.371,98,540.463,98h0.073c9.092,0,16.463,7.371,16.463,16.463V225.537z"/><path d="M557,772.006c0,8.28-7.371,14.994-16.463,14.994h-0.074c-9.092,0-16.463-6.714-16.463-14.994V670.843  c0-8.28,7.371-14.843,16.463-14.843h0.074c9.092,0,16.463,6.563,16.463,14.843V772.006z"/><path d="M557,965.537c0,9.092-7.371,16.463-16.463,16.463h-0.074c-9.092,0-16.463-7.371-16.463-16.463V854.463  c0-9.092,7.371-16.463,16.463-16.463h0.074c9.092,0,16.463,7.371,16.463,16.463V965.537z"/><text transform="matrix(1 0 0 1 45.5337 1351.1836)" font-family="'MyriadPro-Regular'" font-size="72.1225">Created by Benjamin Sommerlad</text><g><path d="M519,302.463c0-5.931,4.028-11.113,10-14.011v-42.904c-5.972-2.898-10-8.08-10-14.011v-31.562   c-8.941,5.117-15,13.714-15,23.568v86.4c0,9.855,6.059,18.648,15,23.915V302.463z"/><path d="M561,198.191v33.346c0,5.568-3.592,10.481-9,13.46v44.005c5.408,2.979,9,7.892,9,13.46v33.234   c10.27-4.877,17-14.64,17-25.754v-86.4C578,212.429,571.27,202.917,561,198.191z"/></g><g><path d="M519,848.463c0-5.242,3.147-9.901,8-12.916v-45.18c-4.84-3.018-8-7.643-8-12.83v-32.622c-10.026,4.933-17,14.056-17,24.628   v86.4c0,10.573,6.974,19.923,17,25.008V848.463z"/><path d="M561,745.191v32.346c0,6.295-4.457,11.76-11,14.529v41.949c6.512,2.795,11,8.216,11,14.447v32.203   c9.136-5.146,15-14.346,15-24.723v-86.4C576,759.167,570.136,750.185,561,745.191z"/></g><g><path d="M519,484.463c0-5.931,4.028-11.113,10-14.011v-42.429c-6.526-2.784-11-8.227-11-14.486v-30.971   c-8.391,5.174-14,13.494-14,22.977v86.4c0,9.855,6.059,18.648,15,23.915V484.463z"/><path d="M560,379.745v33.792c0,5.217-3.154,9.859-8,12.875v44.59c5.408,2.979,9,7.892,9,13.46v33.234   c10.27-4.877,17-14.64,17-25.754v-86.4C578,394.071,570.833,384.302,560,379.745z"/></g><g><path d="M519,666.463c0-5.537,3.6-10.432,9-13.416v-44.005c-5.419-2.975-9-7.91-9-13.505v-32.109c-9.486,5.037-16,13.898-16,24.115   v86.4c0,10.217,6.514,19.291,16,24.479V666.463z"/><path d="M561,562.672v32.865c0,5.903-4.039,11.066-10,13.972v42.893c5.987,2.888,10,8.097,10,14.062v32.738   c9.704-5.024,16-14.509,16-25.258v-86.4C577,576.794,570.704,567.545,561,562.672z"/></g><path d="M557,590.006c0,8.28-7.371,14.994-16.463,14.994h-0.074c-9.092,0-16.463-6.714-16.463-14.994V488.843  c0-8.28,7.371-14.843,16.463-14.843h0.074c9.092,0,16.463,6.563,16.463,14.843V590.006z"/><path d="M556,409.006c0,8.28-7.371,14.994-16.463,14.994h-0.074c-9.092,0-16.463-6.714-16.463-14.994V307.843  c0-8.28,7.371-14.843,16.463-14.843h0.074c9.092,0,16.463,6.563,16.463,14.843V409.006z"/><text x="0" y="1095" fill="#000000" font-size="5px" font-weight="bold" font-family="'Helvetica Neue', Helvetica, Arial-Unicode, Arial, Sans-serif">Created by Benjamin Sommerlad</text><text x="0" y="1100" fill="#000000" font-size="5px" font-weight="bold" font-family="'Helvetica Neue', Helvetica, Arial-Unicode, Arial, Sans-serif">from the Noun Project</text></svg>