<svg xmlns="http://www.w3.org/2000/svg" xmlns:xlink="http://www.w3.org/1999/xlink" version="1.1" x="0px" y="0px" viewBox="0 0 1080 1350" enable-background="new 0 0 1080 1080" xml:space="preserve"><g><path d="M546,195h-8c-18.226,0-34,12.638-34,28.543v86.4C504,325.85,519.774,339,538,339h8c18.226,0,32-13.15,32-29.057v-86.4   C578,207.638,564.226,195,546,195z M552,296.713c0,11.063-4.125,20.287-9.83,20.287h-2.504c-5.705,0-10.666-9.225-10.666-20.287   v-60.092c0-11.063,4.961-19.621,10.666-19.621h2.504c5.705,0,9.83,8.559,9.83,19.621V296.713z"/><path d="M557,231.537c0,9.092-7.371,16.463-16.463,16.463h-0.073c-9.092,0-16.463-7.371-16.463-16.463V120.463   c0-9.092,7.371-16.463,16.463-16.463h0.073c9.092,0,16.463,7.371,16.463,16.463V231.537z"/><path d="M557,413.537c0,9.092-7.371,16.463-16.463,16.463h-0.073c-9.092,0-16.463-7.371-16.463-16.463V302.463   c0-9.092,7.371-16.463,16.463-16.463h0.073c9.092,0,16.463,7.371,16.463,16.463V413.537z"/><path d="M546,377h-8c-18.226,0-34,12.638-34,28.543v86.4C504,507.85,519.774,521,538,521h8c18.226,0,32-13.15,32-29.057v-86.4   C578,389.638,564.226,377,546,377z M552,478.713c0,11.063-4.125,20.287-9.83,20.287h-2.504c-5.705,0-10.666-9.225-10.666-20.287   v-60.092c0-11.063,4.961-19.621,10.666-19.621h2.504c5.705,0,9.83,8.559,9.83,19.621V478.713z"/><path d="M557,595.537c0,9.092-7.371,16.463-16.463,16.463h-0.073c-9.092,0-16.463-7.371-16.463-16.463V484.463   c0-9.092,7.371-16.463,16.463-16.463h0.073c9.092,0,16.463,7.371,16.463,16.463V595.537z"/><path d="M545,559h-8c-18.226,0-34,12.638-34,28.543v86.4C503,689.85,518.774,703,537,703h8c18.226,0,32-13.15,32-29.057v-86.4   C577,571.638,563.226,559,545,559z M551,660.713c0,11.063-4.125,20.287-9.83,20.287h-2.504c-5.705,0-10.666-9.225-10.666-20.287   v-60.092c0-11.063,4.961-19.621,10.666-19.621h2.504c5.705,0,9.83,8.559,9.83,19.621V660.713z"/><path d="M556,777.537c0,9.092-7.371,16.463-16.463,16.463h-0.074c-9.092,0-16.463-7.371-16.463-16.463V666.463   c0-9.092,7.371-16.463,16.463-16.463h0.074c9.092,0,16.463,7.371,16.463,16.463V777.537z"/><path d="M544,741h-8c-18.226,0-34,12.638-34,28.543v86.4C502,871.85,517.774,885,536,885h8c18.226,0,32-13.15,32-29.057v-86.4   C576,753.638,562.226,741,544,741z M550,842.713c0,11.063-4.125,20.287-9.83,20.287h-2.504c-5.705,0-10.666-9.225-10.666-20.287   v-60.092c0-11.063,4.961-19.621,10.666-19.621h2.504c5.705,0,9.83,8.559,9.83,19.621V842.713z"/><path d="M555,959.537c0,9.092-7.371,16.463-16.463,16.463h-0.074c-9.092,0-16.463-7.371-16.463-16.463V848.463   c0-9.092,7.371-16.463,16.463-16.463h0.074c9.092,0,16.463,7.371,16.463,16.463V959.537z"/></g><text transform="matrix(1 0 0 1 45.5337 1351.1836)" font-family="'MyriadPro-Regular'" font-size="72.1225">Created by Benjamin Sommerlad</text><text x="0" y="1095" fill="#000000" font-size="5px" font-weight="bold" font-family="'Helvetica Neue', Helvetica, Arial-Unicode, Arial, Sans-serif">Created by Benjamin Sommerlad</text><text x="0" y="1100" fill="#000000" font-size="5px" font-weight="bold" font-family="'Helvetica Neue', Helvetica, Arial-Unicode, Arial, Sans-serif">from the Noun Project</text></svg>