<?xml version="1.0" standalone="no"?>
<!DOCTYPE svg PUBLIC "-//W3C//DTD SVG 20010904//EN"
 "http://www.w3.org/TR/2001/REC-SVG-20010904/DTD/svg10.dtd">
<svg version="1.0" xmlns="http://www.w3.org/2000/svg"
 width="758.000000pt" height="758.000000pt" viewBox="0 0 758.000000 758.000000"
 preserveAspectRatio="xMidYMid meet">
<metadata>
Created by potrace 1.14, written by Peter Selinger 2001-2017
</metadata>
<g transform="translate(0.000000,758.000000) scale(0.100000,-0.100000)"
fill="#000000" stroke="none">
<path d="M0 3790 l0 -3790 3770 0 3770 0 0 3790 0 3790 -3770 0 -3770 0 0
-3790z m7450 3315 l0 -385 -3680 0 -3680 0 0 385 0 385 3680 0 3680 0 0 -385z
m0 -3740 l0 -3285 -3680 0 -3680 0 0 3285 0 3285 3680 0 3680 0 0 -3285z"/>
<path d="M380 7354 c-149 -69 -183 -274 -67 -403 12 -13 47 -35 77 -48 152
-69 319 42 326 216 2 77 -21 137 -76 192 -38 38 -58 49 -101 58 -69 14 -102
11 -159 -15z m205 -60 c58 -44 80 -90 80 -164 0 -80 -27 -129 -94 -171 -71
-46 -152 -36 -217 25 -35 33 -64 99 -64 145 0 76 51 155 122 186 48 22 130 12
173 -21z"/>
<path d="M1128 7366 c-112 -41 -175 -141 -163 -258 12 -128 105 -219 232 -227
87 -5 183 61 223 153 22 53 21 156 -3 202 -58 113 -184 169 -289 130z m171
-69 c60 -40 86 -90 86 -167 0 -80 -27 -129 -92 -170 -85 -54 -198 -24 -254 67
-19 30 -24 52 -24 105 0 58 4 72 30 109 63 89 169 112 254 56z"/>
<path d="M1856 7372 c-27 -6 -87 -45 -113 -73 -40 -43 -61 -106 -58 -172 8
-253 335 -323 451 -97 9 19 19 63 20 97 6 134 -91 243 -220 248 -33 1 -70 0
-80 -3z m154 -67 c9 -8 20 -15 25 -15 10 0 31 -27 54 -70 43 -84 14 -188 -67
-245 -38 -26 -52 -30 -108 -29 -56 1 -69 5 -102 30 -55 45 -84 107 -79 170 8
85 50 143 124 170 45 16 129 10 153 -11z"/>
<path d="M5823 4556 c-4 -6 -8 -3177 -4 -3329 l1 -28 143 3 142 3 0 905 0 905
25 1 c116 6 550 17 588 15 9 -1 12 -191 12 -916 l0 -915 145 0 146 0 -3 978
-3 979 -30 48 c-32 51 -74 81 -128 91 -67 12 -208 6 -377 -16 -41 -6 -96 -12
-123 -15 -26 -3 -60 -7 -75 -9 -15 -3 -52 -8 -82 -11 -30 -3 -62 -8 -71 -11
-9 -2 -19 1 -21 8 -2 7 -4 307 -3 666 0 576 -1 652 -15 653 -96 5 -263 2 -267
-5z"/>
<path d="M4367 3275 c-83 -29 -121 -77 -135 -175 -11 -80 -6 -438 7 -486 18
-65 63 -113 261 -274 102 -84 194 -159 205 -168 11 -9 43 -35 70 -56 28 -22
57 -47 66 -55 9 -9 31 -27 49 -41 18 -14 69 -55 113 -91 l80 -67 -1 -51 c0
-28 -1 -121 -1 -206 l-1 -155 -288 0 -288 0 0 235 1 234 -140 -2 -140 -2 -1
-261 c-2 -285 5 -335 57 -390 55 -59 56 -59 514 -59 l420 0 40 23 c46 27 81
73 97 128 15 53 16 474 2 545 -21 107 -9 95 -409 419 -153 124 -315 255 -359
292 l-81 67 0 180 0 181 287 0 288 0 0 -205 0 -205 141 0 141 0 -4 253 c-3
233 -5 255 -25 292 -28 53 -67 85 -122 102 -64 19 -788 18 -844 -2z"/>
<path d="M1890 995 l0 -165 905 0 905 0 0 165 0 165 -905 0 -905 0 0 -165z"/>
</g>
</svg>
